<svg id="图层_1" data-name="图层 1" xmlns="http://www.w3.org/2000/svg" viewBox="0 0 832.04 441.43"><defs><style>.cls-1{fill:#6363f4;}.cls-2{fill:#f76c6d;}.cls-3{fill:#f76c71;}.cls-4{fill:#6763f4;}.cls-5{fill:#f66cf6;}.cls-6{fill:#f76c76;}.cls-7{fill:#f76c7c;}.cls-8{fill:#6367f4;}.cls-9{fill:#f76c83;}.cls-10{fill:#ef6bf7;}.cls-11{fill:#8b64f4;}.cls-12{fill:#e26af6;}.cls-13{fill:#e96bf6;}.cls-14{fill:#9665f5;}.cls-15{fill:#f76ca5;}.cls-16{fill:#f76cf1;}.cls-17{fill:#7a64f4;}.cls-18{fill:#8364f4;}.cls-19{fill:#f76c9d;}.cls-20{fill:#646df4;}.cls-21{fill:#6c63f4;}.cls-22{fill:#d469f6;}.cls-23{fill:#f76cad;}.cls-24{fill:#db69f6;}.cls-25{fill:#f76c91;}.cls-26{fill:#f76c96;}.cls-27{fill:#f76c88;}.cls-28{fill:#9e65f5;}.cls-29{fill:#c768f6;}.cls-30{fill:#7464f4;}.cls-31{fill:#c068f5;}.cls-32{fill:#f76cc8;}.cls-33{fill:#f76cec;}.cls-34{fill:#f76cd2;}.cls-35{fill:#f76cd8;}.cls-36{fill:#f76c8c;}.cls-37{fill:#f76cbd;}.cls-38{fill:#ba67f5;}.cls-39{fill:#f76cb7;}.cls-40{fill:#f76ce7;}.cls-41{fill:#a966f5;}.cls-42{fill:#f76cb3;}.cls-43{fill:#b066f5;}.cls-44{fill:#647cf4;}.cls-45{fill:#ce68f6;}.cls-46{fill:#f76ccd;}.cls-47{fill:#a466f5;}.cls-48{fill:#7063f4;}.cls-49{fill:#f76cc2;}.cls-50{fill:#b467f5;}.cls-51{fill:#f76cde;}.cls-52{fill:#6578f5;}.cls-53{fill:#f76ce3;}.cls-54{fill:#f76bde;}.cls-55{fill:#6473f4;}.cls-56{fill:#6f63f4;}.cls-57{fill:#6474f4;}.cls-58{fill:#cd68f6;}.cls-59{fill:#78fb78;}.cls-60{fill:#77fb7c;}.cls-61{fill:#7dfb77;}.cls-62{fill:#77faf3;}.cls-63{fill:#77fb81;}.cls-64{fill:#77fb87;}.cls-65{fill:#77fbed;}.cls-66{fill:#fdfd7e;}.cls-67{fill:#77fbe6;}.cls-68{fill:#82fb77;}.cls-69{fill:#77fb97;}.cls-70{fill:#87fb77;}.cls-71{fill:#77fbb7;}.cls-72{fill:#77fba4;}.cls-73{fill:#77fbe0;}.cls-74{fill:#77fbcd;}.cls-75{fill:#a3fc79;}.cls-76{fill:#77fbd4;}.cls-77{fill:#77fbbf;}.cls-78{fill:#affc79;}.cls-79{fill:#77fb8d;}.cls-80{fill:#77fbda;}.cls-81{fill:#c3fc7a;}.cls-82{fill:#77fbc6;}.cls-83{fill:#77fb9d;}.cls-84{fill:#77fb91;}.cls-85{fill:#77fbab;}.cls-86{fill:#fdef7c;}.cls-87{fill:#77fab1;}.cls-88{fill:#fbdb78;}.cls-89{fill:#b8fc7a;}.cls-90{fill:#94fc78;}.cls-91{fill:#9bfc78;}.cls-92{fill:#face76;}.cls-93{fill:#f1fd7d;}.cls-94{fill:#f88d6e;}.cls-95{fill:#eafd7d;}.cls-96{fill:#8dfb78;}.cls-97{fill:#fce47a;}.cls-98{fill:#fdf67d;}.cls-99{fill:#cefd7b;}.cls-100{fill:#f5826c;}.cls-101{fill:#fac175;}.cls-102{fill:#e3fd7c;}.cls-103{fill:#d4fc7b;}.cls-104{fill:#f7976f;}.cls-105{fill:#dbfd7c;}.cls-106{fill:#f9a071;}.cls-107{fill:#f9a871;}.cls-108{fill:#f9b673;}.cls-109{fill:#f9b172;}.cls-110{fill:#f8fd7e;}.cls-111{fill:#f7fd7e;}.cls-112{fill:#cafb7a;}.cls-113{fill:#8dfa78;}.cls-114{stroke:#000;}</style></defs><title>logo_light</title><path class="cls-1" d="M1041,991.09c11.19,4.19,22.25,8.72,33.11,13.71.62,3.1-2,3.91-3.82,5.11-15.69,10.63-31.93,20.41-47.86,30.68-3.47,2.24-6.4,5.37-10.5,6.61l-34.23-17.06c4.79-5.55,11.62-8.21,17.65-11.82,12.95-7.76,25.46-16.21,38.51-23.79A55,55,0,0,1,1041,991.09Z" transform="translate(-585.54 -779.48)"/><path class="cls-2" d="M1364,1124.29l17.88,7.12c-11.23,10.71-22.05,21-32.89,31.35s-21.55,20.32-32.15,30.66c-2.3,2.24-4,2.63-6.78,1-4.56-2.7-9.38-4.94-14.09-7.37.29-1.8,1.69-2.82,2.84-4,12.43-12.51,25.82-24,39.11-35.53C1346.68,1139.85,1355.55,1132.31,1364,1124.29Z" transform="translate(-585.54 -779.48)"/><path class="cls-3" d="M1364,1124.29c-3.59,6.86-10.26,10.7-15.69,15.7-10.2,9.41-20.9,18.27-31.25,27.5-7.15,6.38-14.07,13-21.1,19.53a87.53,87.53,0,0,1-14.15-6.92c.91-2.87,3.34-4.5,5.39-6.35,14.39-13,29-25.73,43.44-38.65,6.25-5.59,12.21-11.67,19.38-16.22C1355,1119.75,1359.39,1122.35,1364,1124.29Z" transform="translate(-585.54 -779.48)"/><path class="cls-4" d="M1011.92,1047.19c5.87-6.28,13.7-9.77,20.7-14.41,12.84-8.52,25.9-16.71,38.87-25a6.45,6.45,0,0,0,2.61-2.94A85.06,85.06,0,0,1,1089,1011c-1.3,4.52-5.57,6-8.93,8.13-13.63,8.64-26.76,18.05-40.55,26.45-4.53,2.76-8.73,6.07-13.54,8.39Z" transform="translate(-585.54 -779.48)"/><path class="cls-5" d="M1162,1121l-11-5.32c-1.77-2.62.24-4,1.9-5.3,12.17-9.4,24.37-18.77,36.78-27.87,6.66-4.89,12.74-10.58,19.73-15.06,2.44-1.57,4.59-3.87,7.9-3.58,3.78.88,7.16,2.75,10.66,4.32.4,2-1.06,3.06-2.36,4-9.83,7.41-18.72,16.16-29,22.75C1184.34,1102.81,1174.31,1113.4,1162,1121Z" transform="translate(-585.54 -779.48)"/><path class="cls-6" d="M1350,1118.88c-4,5.86-9.86,9.84-15.11,14.29-7.55,6.41-14.71,13.24-22.21,19.68-10.41,8.95-20.61,18.15-30.9,27.24a44.82,44.82,0,0,1-9.91-4.88c-.73-1.67.57-2.45,1.55-3.24,15.6-12.63,30-26.59,45.37-39.53,6.94-5.86,14.08-11.59,20.18-18.4A40.94,40.94,0,0,1,1350,1118.88Z" transform="translate(-585.54 -779.48)"/><path class="cls-7" d="M1339,1114.05c-.29,5.62-5.71,7-8.86,9.95-9.44,8.95-19.53,17.2-29.36,25.73-9.34,8.11-18.19,16.79-28.1,24.24-.37.28-.53.83-.78,1.25a49.64,49.64,0,0,1-10.24-5.07c6.54-6.85,14.42-12.17,21.19-18.76,10-9.72,21-18.25,31.34-27.63,5.2-4.73,10-10.17,16.82-12.82A22.23,22.23,0,0,1,1339,1114.05Z" transform="translate(-585.54 -779.48)"/><path class="cls-8" d="M1041,991.09c-4.94,4.52-11.12,7.12-16.68,10.67-14.79,9.45-29.78,18.59-44.71,27.83a7.3,7.3,0,0,1-1.9.55,67.79,67.79,0,0,1-12-6c.33-1.64,1.61-2.46,2.9-3.21,14.48-8.35,28.53-17.42,42.89-26,5.26-3.13,10.41-6.4,15.53-9.75Z" transform="translate(-585.54 -779.48)"/><path class="cls-9" d="M1331,1110.94c-15,13-30.23,25.79-44.83,39.29-7,6.52-14.5,12.59-21.82,18.8a9.7,9.7,0,0,1-2.7,1.12,16.74,16.74,0,0,1-6-3c1.41-3.32,4-5.81,6.61-8q18.95-16.24,38-32.37c7.45-6.32,15.27-12.33,21.74-19.77A31.57,31.57,0,0,1,1331,1110.94Z" transform="translate(-585.54 -779.48)"/><path class="cls-10" d="M1217.31,1063.87c-16,9.69-29.65,22.52-45,33.08-6.51,4.49-11.89,10.35-18.76,14.29a4.41,4.41,0,0,0-2.58,4.45l-9.06-4.57c2.93-5.41,8.08-8.57,12.92-11.73,9.32-6.09,17.67-13.41,26.59-20q12-8.88,24.08-17.69a4.56,4.56,0,0,1,4.69-.78A23.69,23.69,0,0,1,1217.31,1063.87Z" transform="translate(-585.54 -779.48)"/><path class="cls-11" d="M1125.26,1025.87a20.26,20.26,0,0,1,6.85,2.86c.63,2.63-1.68,3.33-3.09,4.48-8.49,6.92-17.85,12.61-27,18.64-10.18,6.76-19.83,14.27-30.12,20.86-1.25.8-2.37,1.82-3.92,2l-8-4c-1.17-2.51,1.07-3.2,2.41-4.11,19.19-13.16,38.89-25.57,57.9-39C1121.76,1026.64,1123.2,1025.32,1125.26,1025.87Z" transform="translate(-585.54 -779.48)"/><path class="cls-12" d="M1195.4,1054.86A23.23,23.23,0,0,1,1203,1058c-8.24,5.76-16.52,11.62-24.23,17.95-9.89,8.12-21,14.48-30.48,23.12-3.93,3.6-8.89,5.74-13.26,8.72l-6-3c-.87-3.6,1.29-5.65,3.89-7.34,14.52-9.41,28.08-20.15,41.95-30.46,4.93-3.67,10.24-6.79,15.05-10.62C1191.47,1055.18,1193.17,1053.92,1195.4,1054.86Z" transform="translate(-585.54 -779.48)"/><path class="cls-13" d="M1135,1107.79c2.93-5.55,9.48-6.32,13.62-10.46,8.56-8.58,20-13.49,28.72-22.06,2.86-2.82,7.91-3.76,10.1-6.87,3.36-4.79,9.45-5.3,12.72-9.78.42-.58,1.85-.42,2.82-.61a21.61,21.61,0,0,1,7.22,2.92c-5.79,1.59-9.9,6-14.49,9.34-7.55,5.51-14.93,11.3-22.54,16.76a28,28,0,0,0-2.53,2.27c-8.92,8.13-20,13.43-28.71,21.82A23.22,23.22,0,0,1,1135,1107.79Z" transform="translate(-585.54 -779.48)"/><path class="cls-14" d="M1068,1074.76c3.26-4.6,8.69-6.4,12.89-9.82,6.14-5,13.19-8.85,19.73-13.35,9.89-6.81,19.69-13.76,29.5-20.7a13.15,13.15,0,0,0,2-2.15,23.34,23.34,0,0,1,7,2.85c1.29,2.54-.6,3.63-2.23,4.78-13.18,9.24-26.14,18.76-39.85,27.27-7.27,4.51-13.92,10.18-21,15.06Z" transform="translate(-585.54 -779.48)"/><path class="cls-15" d="M1229,1154a16.36,16.36,0,0,1-6-3c5.32-5.7,11.77-10.13,17.63-15.21,7.37-6.38,15-12.57,22.58-18.64,9.43-7.49,18.62-15.25,27.84-23l7,2.91c.56,1.74-.36,2.9-1.63,3.82-8.46,6.16-15.94,13.5-24,20.12-10.4,8.53-21,16.92-31,25.9-2.37,2.12-4.89,4-7.35,6C1232.55,1154.11,1230.94,1155.11,1229,1154Z" transform="translate(-585.54 -779.48)"/><path class="cls-16" d="M1162,1121c.72-1.29,1-3,2.47-3.66,7.62-3.66,12.86-10.42,19.7-15.07a332.78,332.78,0,0,0,30.81-23.4c4.25-3.68,9.37-6.27,13-10.68l6.11,2.6c1.28,2.74-.89,4.12-2.49,5.24-9,6.25-17,13.7-25.81,20.15-12.09,8.88-24,18-35.37,27.7a1.78,1.78,0,0,1-1.86.3A17.89,17.89,0,0,1,1162,1121Z" transform="translate(-585.54 -779.48)"/><path class="cls-17" d="M1052.85,1067.37l-6.84-3.53c-1.33-2.3.5-3.4,1.89-4.41,8.69-6.34,17.72-12.2,26.73-18.07q13.94-9.09,27.65-18.51c2.51-1.72,4.92-3.35,8.13-3A20.23,20.23,0,0,1,1118,1023c-13.76,10.67-28.74,19.58-42.83,29.76C1068,1058,1060.3,1062.5,1052.85,1067.37Z" transform="translate(-585.54 -779.48)"/><path class="cls-18" d="M1052.85,1067.37c1.68-2.77,4.38-4.6,7-6.15,13.81-8.27,26.57-18.07,40-26.9a172.22,172.22,0,0,0,14.94-10.5,5,5,0,0,1,3.29-.84,20.92,20.92,0,0,1,7.22,2.89c-12.53,8.58-25,17.23-37.6,25.7-8,5.39-16.23,10.49-24.28,15.83-1.29.86-3.14,1.38-3.38,3.37Z" transform="translate(-585.54 -779.48)"/><path class="cls-19" d="M1229,1154c4.59-.77,7.27-4.48,10.55-7.14,9.12-7.38,18-15,27-22.59,8.25-6.94,17.21-13.07,24.61-21,2.14-2.28,5.88-2.72,6.88-6.2a13.58,13.58,0,0,1,6,2.78c.42,3.48-2.5,4.88-4.49,6.57-11.41,9.64-23,19-34.44,28.66-8.25,7-16.77,13.59-24.69,20.93-1.62,1.5-3.35,2.08-5.41,1A16.59,16.59,0,0,1,1229,1154Z" transform="translate(-585.54 -779.48)"/><path class="cls-20" d="M1027,985.26c-2.16,5.39-7.88,6.28-12,9-11.32,7.5-23.31,14-34.75,21.3-4.77,3-10,5.33-14.57,8.61a27.9,27.9,0,0,1-8.06-4c1.93-2.84,4.9-4.42,7.72-6.09,15.26-9,30.36-18.22,45.74-27,2.73-1.56,4.9-4,7.92-5.06Z" transform="translate(-585.54 -779.48)"/><path class="cls-21" d="M1026,1054c5.08-5.91,12.22-9,18.56-13.06,9.19-5.93,18.26-12,27.3-18.15,5.73-3.9,12.15-6.79,17.15-11.76l7.05,2.86c.73,2.31-1,3.49-2.45,4.38-20.42,12.81-39.94,27-60.78,39.18Z" transform="translate(-585.54 -779.48)"/><path class="cls-22" d="M1183.32,1049.86a19.93,19.93,0,0,1,7.07,3c-10,7.41-20.33,14.3-30.23,21.82-11.36,8.63-23.66,15.94-34.81,24.87a12.37,12.37,0,0,1-3.51,1.87l-4.85-2.45c-1.35-2.3.46-3.33,1.87-4.39,16.9-12.77,34.25-24.93,51.47-37.26C1174.24,1054.48,1177.61,1049.82,1183.32,1049.86Z" transform="translate(-585.54 -779.48)"/><path class="cls-23" d="M1291,1094.19c-2.6,5.94-8.48,8.6-12.93,12.63-6.37,5.76-13.54,10.65-20,16.37-2.85,2.54-6,4.66-8.87,7.08q-12,10-24,19.89a7.72,7.72,0,0,1-2.27.86,7.51,7.51,0,0,1-4-2c2.16-5.23,6.74-8.09,11-11.22,9-6.58,16.8-14.64,25.78-21.19,10.51-7.66,19.55-17.08,30.24-24.48Z" transform="translate(-585.54 -779.48)"/><path class="cls-24" d="M1121.85,1101.38a133.65,133.65,0,0,1,22.18-17.09c7.44-4.4,13.86-10,20.93-14.79s13.69-9.62,20.5-14.47a11.5,11.5,0,0,1,4.94-2.21,9.39,9.39,0,0,1,5,2c-7.21,3.56-13.47,8.59-19.89,13.3-8.23,6-16.49,12.05-24.72,18.11-6,4.4-11.71,9.09-18.21,12.72-2.22,1.24-2.52,3.78-3.54,5.82Z" transform="translate(-585.54 -779.48)"/><path class="cls-25" d="M1309.1,1101.75c1.26,1.58,3.54.86,4.92,2.18.74,2.4-.79,3.7-2.4,5-11.6,9.15-22.49,19.13-33.7,28.75-5.55,4.76-11.2,9.4-16.89,14a102.37,102.37,0,0,0-9.84,8.4c-1.53,1.58-3.13,3.1-5.64,2.15a6.63,6.63,0,0,1-3.72-1.73c-.83-3,1.63-4.27,3.29-5.54,10.85-8.27,20.91-17.48,31.53-26,8.56-6.89,16.79-14.12,24.86-21.57C1303.82,1105.15,1306.09,1102.95,1309.1,1101.75Z" transform="translate(-585.54 -779.48)"/><path class="cls-26" d="M1309.1,1101.75c-7.26,6.7-14.36,13.57-21.81,20-9.2,8-18.66,15.7-28.07,23.46-3.68,3-7.5,5.88-11.29,8.78-2.38,1.81-4.66,3.7-6.1,6.4A23,23,0,0,1,1235,1157c3.7.45,4.68-3,6.94-4.67,16.71-12.33,31.85-26.58,48.11-39.47,4.83-3.83,10.87-7,14-13A7.78,7.78,0,0,1,1309.1,1101.75Z" transform="translate(-585.54 -779.48)"/><path class="cls-27" d="M1322,1107c.27,1,1.25,1.73-.21,2.95-9.73,8.13-19.32,16.42-29,24.66-8.8,7.53-17.45,15.25-26.47,22.52-3.85,3.1-6.38,7.5-10.71,10a16.13,16.13,0,0,1-6.05-3c7.05-7.58,15.5-13.55,23.35-20.2,12.95-11,25.58-22.27,38.56-33.19,2.29-1.92,4.48-4,7.48-4.83A3.72,3.72,0,0,1,1322,1107Z" transform="translate(-585.54 -779.48)"/><path class="cls-28" d="M1076,1078.69c.36-3,3.12-3.71,5.06-5.07q23.35-16.32,46.83-32.46c3-2,5.88-4.15,8.93-6a4.26,4.26,0,0,0,2.32-3.53,30,30,0,0,1,8,3.33c-1.26,2.57-4,3.5-6.09,4.91-17.82,11.83-34.67,25-52.44,36.9a51.29,51.29,0,0,1-7.71,4.48Z" transform="translate(-585.54 -779.48)"/><path class="cls-29" d="M1111,1095.88a13.75,13.75,0,0,1-5.17-2.55c.07-3.66,3.32-4.73,5.57-6.26,13.58-9.23,26.81-18.93,40.05-28.62,6.42-4.7,12.9-9.34,19.59-13.67a21.34,21.34,0,0,1,7.26,3c-1.59,2.8-4.2,4.63-6.75,6.29-6.15,4-12,8.45-18.17,12.47-12.47,8.73-25.19,17.12-37.19,26.51A12.33,12.33,0,0,1,1111,1095.88Z" transform="translate(-585.54 -779.48)"/><path class="cls-30" d="M1110.4,1019.83c-10.7,5.58-20.21,13-30.28,19.55-7.29,4.74-14.82,9.14-21.85,14.22-4.29,3.1-9.57,5.17-12.26,10.24l-6-3c-.65-4.17,3-5.09,5.4-6.59,5.46-3.46,10.86-7,16.28-10.5,12.08-7.83,23.53-16.61,36.06-23.77,2.57-1.47,5.05-3.22,8.27-2A7.39,7.39,0,0,1,1110.4,1019.83Z" transform="translate(-585.54 -779.48)"/><path class="cls-31" d="M1171.06,1044.79c-2,4.67-6.73,6.48-10.39,8.87-11.93,7.79-22.8,17-34.5,25-6.89,4.73-14.17,8.9-20.32,14.65a11.24,11.24,0,0,1-4.83-2.4c-.51-2,.62-3.3,2-4.2,14.12-9.3,27.46-19.67,41.38-29.24,7.21-5,14.09-10.4,21.71-14.75A11.5,11.5,0,0,1,1171.06,1044.79Z" transform="translate(-585.54 -779.48)"/><path class="cls-32" d="M1264,1083.09a17.66,17.66,0,0,1,6.15,2.58c.72,3-1.68,4.2-3.4,5.45-15.15,11-29.18,23.33-43.95,34.77-4.82,3.73-9.8,7.36-14.17,11.68a15.16,15.16,0,0,1-5.76,3.8l-4-2.13c.57-5.06,4.74-7.34,8.22-9.76,8.46-5.86,15.87-13,24.07-19.14,8.36-6.26,16-13.51,24.53-19.46C1258.94,1088.65,1261.08,1085.51,1264,1083.09Z" transform="translate(-585.54 -779.48)"/><path class="cls-33" d="M1168.55,1124.18c6.7-6,13.57-11.71,20.72-17.19,9.59-7.34,19.54-14.23,28.68-22.21,3.9-3.41,7.92-6.93,12.69-9.37a6.5,6.5,0,0,0,3.44-4.63c2.25.68,4.68,1,6.29,3-4.55,6.15-11.35,9.61-17.18,14.18-12.69,9.94-25.55,19.65-38,29.85-3.84,3.13-7,7.72-12.57,8.34A6.73,6.73,0,0,1,1168.55,1124.18Z" transform="translate(-585.54 -779.48)"/><path class="cls-34" d="M1196,1137.92l-5.12-2.65c-.66-2.75,1.5-3.9,3.17-5,10.08-6.76,18.53-15.52,28.16-22.89,11-8.43,22.63-16.26,32.56-26.11a5,5,0,0,1,2.21-1.09l5,2.07c-.05,3.53-2.93,5.1-5.17,6.84-16.62,12.91-33.59,25.37-49.34,39.39C1203.77,1131.73,1199.21,1134,1196,1137.92Z" transform="translate(-585.54 -779.48)"/><path class="cls-35" d="M1257,1080.16c-8.25,9.58-19.06,16-28.81,23.8-11.82,9.4-23.47,19-35.16,28.59a15.42,15.42,0,0,0-2.12,2.72,18.58,18.58,0,0,1-6.25-3.1c7.66-7.4,16.6-13.2,24.84-19.87,3-2.4,6.29-4.36,9-7,10.47-10.27,22.82-18.08,34.61-26.62Z" transform="translate(-585.54 -779.48)"/><path class="cls-36" d="M1319,1106q-18.66,15.95-37.33,31.89-13.58,11.59-27.17,23.16c-1.5,1.28-2.65,3.05-4.9,3.17a6.79,6.79,0,0,1-4.07-2c.92-.34,2.09-.43,2.72-1.06,8.24-8.25,17.92-14.75,26.75-22.26,10.83-9.21,21.33-18.81,31.93-28.3,2.4-2.15,6.32-2.68,7.07-6.6A11.91,11.91,0,0,1,1319,1106Z" transform="translate(-585.54 -779.48)"/><path class="cls-37" d="M1210.8,1145.09a8,8,0,0,1-4-2c.12-2.7,2.26-3.8,4.1-5.13,3-2.19,6.36-4.06,8.24-7.52a24.91,24.91,0,0,1,6.48-5.27c3-.85,5.18-3,7.44-5a8.58,8.58,0,0,1,.9-1c3.42-2.58,6.82-5.19,10.14-7.9,7.73-5.37,14.27-12.18,21.82-17.78,2.9-2.15,5.48-4.7,9.13-5.58l3.94,1.33c0,2.76-2.28,3.89-4,5.32-8.81,7.3-18,14.14-26.76,21.5-11.18,9.39-22.79,18.27-33.88,27.77C1213.33,1144.67,1212.34,1145.69,1210.8,1145.09Z" transform="translate(-585.54 -779.48)"/><path class="cls-38" d="M1166.09,1042.75a85.37,85.37,0,0,1-15.28,11.58c-5.72,3.3-10.91,7.58-16.17,11.62-9.08,7-18.86,13-27.78,20.18-1.94,1.57-4.58,2.32-5.85,4.8a8,8,0,0,1-4-2c-1.29-3.59,1.89-4.61,3.79-6,5.08-3.72,10.59-6.8,15.63-10.62,8.44-6.41,16.95-12.77,25.59-18.86,6.17-4.35,12.13-9.22,19-12.59A7.77,7.77,0,0,1,1166.09,1042.75Z" transform="translate(-585.54 -779.48)"/><path class="cls-39" d="M1210.8,1145.09l68.15-55.85c1.35-.08,2.1,1,3.08,1.6.71,2.56-1.46,3.48-2.84,4.71-10.51,9.43-21.88,17.85-32.6,27-9.08,7.76-18.9,14.62-27.56,22.88a6.22,6.22,0,0,1-4.08,1.66A8.09,8.09,0,0,1,1210.8,1145.09Z" transform="translate(-585.54 -779.48)"/><path class="cls-40" d="M1172.56,1126.17c9.65-7.73,19.22-15.55,29-23.18,11.72-9.18,23.56-18.21,35.38-27.26a26.45,26.45,0,0,1,3.47-1.93l1.64.23c2.79,2.73,0,4.32-1.55,5.45-9.46,7-18.2,14.85-27.67,21.83-11,8.12-21.94,16.37-32.23,25.42-1.17.9-2.31,1.88-4,1.43A6.69,6.69,0,0,1,1172.56,1126.17Z" transform="translate(-585.54 -779.48)"/><path class="cls-41" d="M1152,1037l2,.94c1.17,1.62,0,2.44-1.16,3.16-11.41,7.1-21.52,16.06-33.27,22.77-6.25,3.57-11.8,8.56-17.44,13.2-3.67,3-8.69,4.38-11.13,8.94a16.14,16.14,0,0,1-6-3c-.34-3.15,1.59-5,4-6.13,8.91-4.26,16.18-10.93,24.36-16.26,11.21-7.31,21.39-16.13,33.16-22.63C1148.33,1037,1149.92,1035.83,1152,1037Z" transform="translate(-585.54 -779.48)"/><path class="cls-42" d="M1215,1147.11c11.18-10.27,23.33-19.41,35-29.09,9.78-8.12,19.56-16.29,29.52-24.23a7.19,7.19,0,0,0,2.58-3,5.34,5.34,0,0,1,4,1.31c-3.32,5.5-9.11,8.35-13.65,12.54-11.47,10.59-24.43,19.41-36,30-5.52,5-12.11,8.95-17.4,14.38C1217.21,1149.25,1216.13,1148.08,1215,1147.11Z" transform="translate(-585.54 -779.48)"/><path class="cls-43" d="M1091,1086c-.87-3.7,2.19-4.79,4.4-6.11,7.26-4.31,13.52-9.93,20.25-14.92,4.47-3.31,9.66-5.64,14.13-9,7.79-5.78,15.62-11.47,23.78-16.71.31-.2.3-.91.44-1.38,1.79.52,3.71.72,5.23,2-1,3.22-4,4.28-6.42,6-16.56,11.65-33.49,22.8-49.51,35.21-3.15,2.44-6.35,4.85-10.3,5.92Z" transform="translate(-585.54 -779.48)"/><path class="cls-44" d="M949.55,1016.18c-1.88-.22-3.31-1.29-5.4-2.52l54.08-32a51.48,51.48,0,0,0,5.1-3.07c2.49-1.9,4.75-1.82,7,.22-1.45,4-5.41,5.35-8.56,7.18-11.92,6.88-23.51,14.31-35.49,21.09-4.42,2.5-9.11,4.73-13.14,8C952.13,1015.86,951,1016.58,949.55,1016.18Z" transform="translate(-585.54 -779.48)"/><path class="cls-45" d="M1153,1066c1.29-3.06,4.57-3.58,6.89-5.3,6-4.45,12.27-8.61,18.43-12.88a11.29,11.29,0,0,1,5,2c-9.3,6.49-18.64,12.9-27.87,19.48-9.54,6.8-19.22,13.45-28.31,20.82-3.43,2.78-8.53,3.86-10.14,8.77a8.35,8.35,0,0,1-4-2c-.41-2.52,1.93-2.83,3.23-3.86C1128.16,1083.61,1141,1075.38,1153,1066Z" transform="translate(-585.54 -779.48)"/><path class="cls-46" d="M1196,1137.92c.13-3.55,2.95-5.14,5.38-6.66,4.38-2.75,8-6.27,11.87-9.67,7.12-6.32,14.67-12.23,22.19-18,5.84-4.47,11.61-9.2,17.76-13.32a38.52,38.52,0,0,0,8.75-8l2,.86c-1.68,6.77-8.31,8.65-12.73,12.65a234.4,234.4,0,0,1-21.4,17.47c-7.81,5.54-14.09,12.95-22.69,17.53-3.36,1.79-6.11,5.07-8.28,8.49A3.93,3.93,0,0,1,1196,1137.92Z" transform="translate(-585.54 -779.48)"/><path class="cls-47" d="M1152,1037c-4.2.19-7.28,3.15-10.37,5.2-13.37,8.86-26.36,18.3-39.34,27.73-4.12,3-8,6.25-12.91,7.94-2.39.82-3,3.39-4.42,5.16-1.44-.42-3-.63-4.07-1.81,1.87-4.45,6.74-5.06,10.09-7.57,9-6.75,19-12.25,27.68-19.3,7.47-6,15.56-11.06,23.18-16.8,1.67-1.26,3.64-1.54,5.3-2.61A9.92,9.92,0,0,1,1152,1037Z" transform="translate(-585.54 -779.48)"/><path class="cls-48" d="M1106,1018c-6.81,1.11-12,5.57-17.43,9.12-14.42,9.33-28.12,19.76-43.06,28.32-2.17,1.24-4.47,2.83-5.52,5.44l-3.12-1.54c-1.38-3.27,1.25-4.47,3.2-5.8,13.41-9.1,27.12-17.76,40.56-26.81,4.93-3.32,10.14-6.22,14.89-9.83,1.63-1.24,3.45-2,5.52-.91C1102.7,1016.66,1104.64,1016.64,1106,1018Z" transform="translate(-585.54 -779.48)"/><path class="cls-49" d="M1275,1087.91c-9.78,7.6-19.47,15.31-28.67,23.61-.51.46-1.55.34-2.35.48-3.22,2.81-7.44,4.37-10,8-3.11,1.41-4.65,4.91-8,6l-6,5c-4.23,3.67-9,6.63-13,10.58a1.81,1.81,0,0,1-2.21.53,1.78,1.78,0,0,1-1.88-.75c6.39-6.71,14-12,21.12-17.85,6.1-5,12.16-10.05,18.32-15,5.54-4.43,11.2-8.72,16.8-13.08,3.89-3,8.42-5.34,11.05-9.78A9,9,0,0,1,1275,1087.91Z" transform="translate(-585.54 -779.48)"/><path class="cls-50" d="M1093,1087c7.51-5.58,15.09-11.07,22.52-16.75,10.19-7.79,21.56-13.85,31.41-22.22,3.62-3.08,8.28-5.28,12.3-8.12l1.78,1a55.5,55.5,0,0,1-15.23,11.21c-3.36,1.65-5.71,4.43-8.61,6.56-11.76,8.67-23.4,17.49-35.78,25.31-1.79,1.13-4.22,2.22-4.4,5A7.94,7.94,0,0,1,1093,1087Z" transform="translate(-585.54 -779.48)"/><path class="cls-51" d="M1247.06,1076.85l2.93.42c1.21,2.31-.61,3.3-2,4.36-7.74,5.91-15.46,11.83-23.09,17.88-12.66,10-24.88,20.65-38,30.16-1.36,1-2.46,2.3-4.36,1.48l-1.73-.81c-.64-2.94,2.48-3.77,3.3-5.9a4.8,4.8,0,0,1,1.71-1.29,91.38,91.38,0,0,0,19.26-13.91c3.14-3,6.89-5.24,9.56-8.7,8.41-6.73,18.22-11.66,25.39-20C1241.82,1078.51,1244.63,1077.89,1247.06,1076.85Z" transform="translate(-585.54 -779.48)"/><path class="cls-52" d="M949.55,1016.18c16.46-10.85,33.68-20.42,50.65-30.41,3.53-2.08,6.79-4.63,10.17-7,1.24-.28,1.65,1.09,2.63,1.32,1.29,2.15-.41,3-1.78,3.84-18.95,11.79-38.34,22.84-57.38,34.48A9.4,9.4,0,0,1,949.55,1016.18Z" transform="translate(-585.54 -779.48)"/><path class="cls-53" d="M1247.06,1076.85c-7,4.3-11.61,11.56-19.11,15.4-4.61,2.36-7.78,7.07-12.95,8.75a356.19,356.19,0,0,1-29,23l-1,1c-1.58.78-3,2.42-5,1,5.33-6,12.14-10.17,18.32-15.12s12.28-10,18.82-14.38c7.56-5.07,13.61-11.95,21.28-16.87,1.75-1.12,4.9-2.16,3.59-5.6C1243.8,1074.79,1246.14,1074.54,1247.06,1076.85Z" transform="translate(-585.54 -779.48)"/><path class="cls-54" d="M1182.59,1131.14c6.66-3.92,12.47-9,18.5-13.76,4.82-3.81,9.26-8,14.24-11.68,7.4-5.41,14.37-11.42,21.58-17.1,3.44-2.71,7-5.25,10.54-7.85,1.23-.9,2.41-1.8,2.54-3.49l3.13,1.36c-.22.62-.25,1.55-.68,1.8-8.48,5-15.27,12.38-23.83,17.31-5.52,3.18-9,8.75-14.13,12.47-9.25,6.66-18.08,13.9-27.13,20.84a11.18,11.18,0,0,1-2.71,1.12Z" transform="translate(-585.54 -779.48)"/><path class="cls-55" d="M1019,982c-2.92,4.62-8.08,6.09-12.33,8.84-15.62,10.07-32.32,18.35-47.6,29a4.16,4.16,0,0,1-1.44.34,2.18,2.18,0,0,1-2-1c2.27-5.47,7.91-7,12.27-9.55,15.57-9.06,31-18.42,46.27-27.89.57-.35,1.24-.47,1.83-.78A3.78,3.78,0,0,1,1019,982Z" transform="translate(-585.54 -779.48)"/><path class="cls-56" d="M1101,1016c-5.73,1.11-9.92,5.13-14.49,8.19-8.78,5.9-17.71,11.56-26.56,17.35-6.9,4.51-13.7,9.18-20.55,13.78a5,5,0,0,0-2.58,4l-4-1.92c1.82-3.31,5.41-4.22,8.28-6.1q25-16.39,50-32.73c2-1.29,3.89-2.56,5-4.73A10.11,10.11,0,0,1,1101,1016Z" transform="translate(-585.54 -779.48)"/><path class="cls-57" d="M1016,981c-7.46,6.11-16.06,10.44-24.13,15.61-12,7.69-25,13.74-36.24,22.61l-1.8-.76c3.24-5.53,9.39-7.29,14.4-10.1,7.36-4.12,14.28-8.91,21.67-13,6.92-3.81,13.49-8.26,20.33-12.22,1.38-.8,2.67-1.25,2.77-3A2.76,2.76,0,0,1,1016,981Z" transform="translate(-585.54 -779.48)"/><path class="cls-58" d="M1153,1066c-3,4.79-8.21,7.09-12.41,10.48-6.73,5.45-14.11,10.11-20.88,15.51-2.18,1.74-5.24,2.28-6.7,4.95a2.31,2.31,0,0,1-2-1.05c8.89-8.14,19.15-14.42,28.95-21.32C1144.21,1071.58,1147.94,1067.76,1153,1066Z" transform="translate(-585.54 -779.48)"/><path class="cls-49" d="M1204.74,1142.11c3.37-2.82,6.78-5.61,10.11-8.49A9.35,9.35,0,0,1,1220,1131c-1.21,3.59-4.5,5.09-7.25,7.08a32.15,32.15,0,0,0-6,5Z" transform="translate(-585.54 -779.48)"/><path class="cls-53" d="M1180,1126l5-1c-.5,2.46-3.28,3.15-4.14,5.33a8.86,8.86,0,0,1-4.27-2.16Z" transform="translate(-585.54 -779.48)"/><path class="cls-49" d="M1234,1120c1.41-5.07,6.2-5.91,10-8C1241.49,1115.7,1237.74,1117.84,1234,1120Z" transform="translate(-585.54 -779.48)"/><path class="cls-49" d="M1226,1126c3-1.51,3.48-6.47,8-6A10.59,10.59,0,0,1,1226,1126Z" transform="translate(-585.54 -779.48)"/><path class="cls-53" d="M1186,1124c4.3-5.89,10.88-9,16.36-13.51,4.07-3.32,7.71-7.3,12.64-9.49-2.33,4.95-7.43,7.21-11,11-4,4.32-9.56,7.22-14.35,10.84A5.42,5.42,0,0,1,1186,1124Z" transform="translate(-585.54 -779.48)"/><path class="cls-59" d="M784,934.7l-30.26-14.59c1.2-3.6,4.53-4.55,7.47-6,14.29-6.87,28.9-13.1,42.74-20.89,11.11,4.32,22.22,8.65,33,13.74-1.11,2-3.14,2.89-5,3.86-12.66,6.47-25.44,12.72-38.22,18.94C790.49,931.38,787.66,933.83,784,934.7Z" transform="translate(-585.54 -779.48)"/><path class="cls-60" d="M784,934.7c4.05-5,10.26-6.66,15.61-9.24,12.51-6,24.8-12.49,37.34-18.46a32.82,32.82,0,0,1,9.3,3.83c-.56,2.36-2.46,3.49-4.35,4.5-15.81,8.43-32,16-48.08,24Z" transform="translate(-585.54 -779.48)"/><path class="cls-61" d="M804,893.26c-.1,2.07-1.76,2.65-3.24,3.36-13.29,6.34-26.57,12.71-39.92,18.93-2.6,1.21-4.69,3.06-7,4.56a29.19,29.19,0,0,1-7.93-3.8c0-3.45,3-4,5.17-5.14,10-5.27,20.37-9.68,30.55-14.54,4.77-2.28,9.24-5.19,14.41-6.6Z" transform="translate(-585.54 -779.48)"/><path class="cls-62" d="M924,942.88l6.91,2.46c-2.38,2.5-5.35,3.47-8,4.9-15.34,8.35-30.77,16.52-46,25-3.39,1.89-6.06,2.21-8.92-.41-.41-1.86.85-2.79,2.15-3.5,17-9.21,33.84-18.79,51-27.76A8.48,8.48,0,0,1,924,942.88Z" transform="translate(-585.54 -779.48)"/><path class="cls-63" d="M793.87,939.32c.76-2.17,2.85-2.64,4.59-3.52q18.59-9.35,37.22-18.63a54.78,54.78,0,0,0,10.62-6.34,20.81,20.81,0,0,1,6.86,2.78c.59,2.81-1.75,3.19-3.42,4-15.07,7.42-30,15.17-45,22.67-1.36.68-2.45,1.72-3.73,2.49A26.08,26.08,0,0,1,793.87,939.32Z" transform="translate(-585.54 -779.48)"/><path class="cls-64" d="M801,942.79c-.27-2.09,1.12-2.83,2.72-3.61q24-11.77,47.93-23.67c.66-.33,1-1.25,1.51-1.9a11.08,11.08,0,0,1,5,2.06c1.3,2.75-1.06,3.42-2.61,4.44-6.24,4.11-13.3,6.61-19.86,10.15C825.93,935.5,816.23,940.83,806,945A11.15,11.15,0,0,1,801,942.79Z" transform="translate(-585.54 -779.48)"/><path class="cls-65" d="M924,942.88c-9.17,6.17-19.31,10.62-28.83,16.18-9.05,5.29-18.7,9.55-27.19,15.8a8.35,8.35,0,0,1-4-1.94c-1.29-2.08.32-3.09,1.65-4a66.35,66.35,0,0,1,7.56-4.78c13.39-6.49,26.18-14.08,39.06-21.5,2.19-1.26,4.4-2.26,7-1.79A10.8,10.8,0,0,1,924,942.88Z" transform="translate(-585.54 -779.48)"/><path class="cls-66" d="M727.45,861.82a7.24,7.24,0,0,1,4.58,2.07c.37,2.45-1.65,3.08-3.17,3.7-8.17,3.35-16.34,6.68-24.29,10.53-5.62,3.88-12.76,4.29-18.47,8a3.38,3.38,0,0,1-3.33,0,7.19,7.19,0,0,1-3.86-1.85c-.45-3.19,2.34-3.89,4.19-4.7,12.72-5.57,25.51-11,38.06-16.92C723.15,861.68,725.31,861.85,727.45,861.82Z" transform="translate(-585.54 -779.48)"/><path class="cls-67" d="M919.28,940.88c-9,3.34-16.42,9.5-24.89,13.77-9.25,4.67-18.33,9.64-27.31,14.8-1.45.83-3.06,1.42-3.08,3.48a7.9,7.9,0,0,1-4-1.93c-2.29-1.55-1.77-3,.32-4.1,10.12-5.33,20.11-10.9,30.21-16.26,5.84-3.1,11.84-5.92,17.45-9.44,2-1.23,3.85-2.56,6.33-2.33A11.78,11.78,0,0,1,919.28,940.88Z" transform="translate(-585.54 -779.48)"/><path class="cls-68" d="M796,890c-5.77,4.43-12.54,7-19,10.09-8.8,4.24-17.64,8.39-26.43,12.65a11.94,11.94,0,0,0-4.69,3.54A22.26,22.26,0,0,1,739,913c6-4.48,13-7.24,19.62-10.47,10.4-5,21.13-9.4,31.42-14.69C792.4,887.51,794,889.39,796,890Z" transform="translate(-585.54 -779.48)"/><path class="cls-69" d="M868.33,919.88A3.64,3.64,0,0,1,871,921c.35,3.26-2.14,4.28-4.39,5.18-7.88,3.15-14.92,7.86-22.45,11.62-8.72,4.36-17.22,9.17-26.16,13.08a8.34,8.34,0,0,1-4-1.93c-1.24-1.92.35-2.74,1.53-3.53a61.38,61.38,0,0,1,8.12-4.86c12.81-5.91,25.18-12.69,37.56-19.43C863.44,919.92,865.72,919,868.33,919.88Z" transform="translate(-585.54 -779.48)"/><path class="cls-70" d="M790,887.84c-1.33,3.47-4.85,3.84-7.6,5.13-13.86,6.53-28,12.57-41.46,19.84a5.34,5.34,0,0,1-2,.19,7.4,7.4,0,0,1-4-2c-.4-.76.06-1.22.59-1.65a34.64,34.64,0,0,0,4-2.07,8.82,8.82,0,0,1,2.28-1.15,8.15,8.15,0,0,0,3.87-1.9,7.38,7.38,0,0,1,2.94-1.33,8.53,8.53,0,0,0,4-1.86,8.77,8.77,0,0,1,4.15-2.17c2.35-.16,4.09-1.7,6.06-2.7,5-2.81,10.53-4.49,15.65-7.08,2.06-1,4.08-2.1,5.44-4.06A13.48,13.48,0,0,1,790,887.84Z" transform="translate(-585.54 -779.48)"/><path class="cls-71" d="M837,960c-1.76-.51-3.61-.81-4.94-2.27-.11-2.37,1.92-2.85,3.4-3.8C845.8,947.21,857,942.12,868,936.71c6.09-3,11.64-7.06,18.18-9.16a11,11,0,0,1,6.18,2.28c-2.88,2.89-6.78,4-10.25,5.89C867.09,943.84,851.8,951.47,837,960Z" transform="translate(-585.54 -779.48)"/><path class="cls-72" d="M824.92,954.19,822,952.83c-1.23-3,1.32-3.71,3-4.7,8.18-4.72,16.68-8.83,25.09-13.1,7.81-4,15.48-8.19,23.37-12a2.1,2.1,0,0,1,1.88-.22,10.91,10.91,0,0,1,4.93,2c-2.22,4.52-7,5.4-10.91,7.21-12.06,5.55-23.44,12.4-35.29,18.35A55.24,55.24,0,0,1,824.92,954.19Z" transform="translate(-585.54 -779.48)"/><path class="cls-73" d="M914.31,938.86c-10.1,6.42-20.94,11.5-31.44,17.19-7.37,4-14.7,8-22.18,11.83-2,1-1.16,1.92-.69,3.11-1.78-.51-3.64-.86-5-2.3-1.15-2.38.62-3.31,2.2-4.16,16.05-8.66,32.3-17,48.27-25.78,2.15-1.19,4.22-1.83,6.56-.77A2.52,2.52,0,0,1,914.31,938.86Z" transform="translate(-585.54 -779.48)"/><path class="cls-74" d="M900,933a7.33,7.33,0,0,1,4.38,1.82c-.93,1.8-2.8,2.25-4.43,3-10.43,4.66-20,10.93-30.33,15.8C862,957.19,855,961.94,847,964.82l-4-1.89c-1.27-2.09.54-2.58,1.77-3.23,16.94-8.88,33.81-17.88,51.08-26.1C897.14,933,898.45,932,900,933Z" transform="translate(-585.54 -779.48)"/><path class="cls-75" d="M770,879.24l5,2c-.43,3.4-3.49,3.73-5.79,4.64-12.66,5-24.84,11.06-37.06,17-2.94,1.44-6,2.89-9.49,2.2a7.19,7.19,0,0,1-4-1.95c6.25-5.42,14.22-7.57,21.39-11.23,7.95-4.06,16.45-7,24.27-11.3C766.12,879.63,768.07,879.76,770,879.24Z" transform="translate(-585.54 -779.48)"/><path class="cls-76" d="M847,964.82c4.41-4.4,10.21-6.78,15.59-9.26,11.64-5.35,22.33-12.41,34-17.63,2.55-1.14,5.18-2.09,7.78-3.12a3.68,3.68,0,0,1,2.82,1.1,20.31,20.31,0,0,1-9.41,6.16c-5.42,1.48-9.36,5.57-14.21,8.08-10.83,5.6-21.46,11.59-32.58,16.61Z" transform="translate(-585.54 -779.48)"/><path class="cls-77" d="M837,960c0-2.32,1.91-2.85,3.52-3.7,8.31-4.38,16.46-9.07,24.92-13.13,9-4.33,17.21-10.36,26.91-13.31A3.14,3.14,0,0,1,895,931c-2,3.3-5.36,4.87-8.63,6.47-15,7.39-29.63,15.61-44.48,23.35a2.75,2.75,0,0,1-2.37.36A3.37,3.37,0,0,1,837,960Z" transform="translate(-585.54 -779.48)"/><path class="cls-78" d="M770,879.24q-24.27,11.51-48.54,23a24.26,24.26,0,0,1-2.82.94A9.2,9.2,0,0,1,714,901c2.84-2.64,6.36-4.15,9.8-5.74,11.7-5.39,23.71-10.1,35.1-16.18a13.36,13.36,0,0,1,6.1-1.92C766.83,877.4,767.85,879.62,770,879.24Z" transform="translate(-585.54 -779.48)"/><path class="cls-79" d="M806,945c4-4.36,9.77-5.7,14.64-8.56,5.19-3,10.84-5.32,16.14-8.27,5.91-3.3,12.09-6.13,18.14-9.16,1.47-.74,3.15-1.28,3.22-3.36l5,2.07c.7,2.63-1.57,3-3,3.76-12.19,6.47-24.6,12.51-36.86,18.85-4.42,2.29-8.61,5.05-13.29,6.85Z" transform="translate(-585.54 -779.48)"/><path class="cls-80" d="M851,966.75c1.72-3.08,5-4.43,7.83-5.47,9.87-3.64,18.72-9.23,27.62-14.52,6.76-4,14.15-6.66,20.76-10.85A9.76,9.76,0,0,1,912,938c-5.4-.2-9,3.86-13.29,6-11.62,5.71-23.19,11.6-34.25,18.31-3.16,1.91-8.33,1.44-9.49,6.4Z" transform="translate(-585.54 -779.48)"/><path class="cls-81" d="M709.94,899a7.7,7.7,0,0,1-4.19-1.92c7-5.41,15.38-8.28,23.36-11.82,4.05-1.8,7.87-4.19,12.21-5.33,2.61-.22,4.76-1.57,6.9-2.91a6.6,6.6,0,0,1,2.5-1.09c2.29,0,4-2,6.29-2a7,7,0,0,1,4.16,1.68c.6,1.89-1,2.28-2.09,2.79-12.64,5.88-25.12,12.13-38.07,17.3C717.47,897.16,714.41,900.68,709.94,899Z" transform="translate(-585.54 -779.48)"/><path class="cls-82" d="M839.57,961.16c11.43-6.34,22.61-13.1,34.58-18.51,7.24-3.27,13.95-7.74,20.89-11.67a9.24,9.24,0,0,1,5,2c-10.13,5.17-20.34,10.16-30.42,15.44-7.72,4-15.42,8.28-23.36,12-1.24.58-3.15.39-3.23,2.51A5.44,5.44,0,0,1,839.57,961.16Z" transform="translate(-585.54 -779.48)"/><path class="cls-83" d="M875.37,922.83c-6.75,5.25-14.83,8.09-22.23,12.17-9.61,5.3-19.52,10.08-29.3,15.08a3.09,3.09,0,0,0-1.84,2.75l-4-1.94c1-2.7,3.72-3.19,5.77-4.14,14.73-6.79,28.22-16,43.38-22A7.93,7.93,0,0,0,871,921,7.55,7.55,0,0,1,875.37,922.83Z" transform="translate(-585.54 -779.48)"/><path class="cls-84" d="M809.92,947.19c2.17-3.73,6.27-4.65,9.7-6.42,13.77-7.1,27.65-14,41.5-20.92a4,4,0,0,0,2-2.11,12.92,12.92,0,0,1,5.21,2.14c-7.65,2.15-14.08,6.87-21.17,10.2-10.43,4.91-20.44,10.71-30.63,16.14-1.15.61-2.51,1.06-2.53,2.73C812.59,948.49,811,948.4,809.92,947.19Z" transform="translate(-585.54 -779.48)"/><path class="cls-85" d="M824.92,954.19c5-4,11.08-6,16.55-9.13,7.25-4.16,14.52-8.33,22.07-11.9,5.64-2.67,11.54-4.77,16.75-8.32A3.37,3.37,0,0,1,883,926c-1.18,4.51-5.33,5.58-8.78,7.14-7.57,3.42-15.08,7-22.28,11.12-6.59,3.8-13.57,6.87-20,10.88-1.23.76-2.56.56-3.87.63Z" transform="translate(-585.54 -779.48)"/><path class="cls-86" d="M674.84,882.41,670,880c-.25-1.77,1.16-2.21,2.31-2.77,14-6.83,28.6-12.06,42.75-18.43,1.83-.82,3.56-.33,5.32.1A3.19,3.19,0,0,1,723,860c-1,2.62-3.55,3.54-5.73,4.42C703,870.17,689.18,876.85,674.84,882.41Z" transform="translate(-585.54 -779.48)"/><path class="cls-87" d="M828,955.76c13.38-7.17,26.73-14.41,40.17-21.48,5-2.63,11-3.45,14.79-8.29,1.15.32,2.4.46,3.17,1.56a4.67,4.67,0,0,1-2.5,3c-13.33,5.14-25.39,12.88-38.35,18.83a57.51,57.51,0,0,0-13.25,8.36C830.69,957.12,829,957.14,828,955.76Z" transform="translate(-585.54 -779.48)"/><path class="cls-88" d="M667,878.68l-4-2c-.16-2.59,1.88-3.2,3.64-4.09a115.94,115.94,0,0,1,14.63-6.11c6.89-2.39,13.21-6.11,19.9-9a36.56,36.56,0,0,1,8.92-2.9,11.48,11.48,0,0,1,5.2,2.2,3.53,3.53,0,0,1-2.44,2.31C697.44,865.22,682.69,873,667,878.68Z" transform="translate(-585.54 -779.48)"/><path class="cls-89" d="M709.94,899c10.57-3.86,20.67-8.77,30.87-13.47,6.85-3.15,13.8-6.11,20.35-9.89l3.81,1.5a251.5,251.5,0,0,1-32.71,15.57C726,895.18,720.51,899.23,714,901A7.48,7.48,0,0,1,709.94,899Z" transform="translate(-585.54 -779.48)"/><path class="cls-90" d="M732,909.89l-5.31-2.76c7.25-5.77,16.08-8.49,24.21-12.58,8.61-4.33,17.94-7.15,26.1-12.41l5,2c-.32,2.89-2.85,3.35-4.85,4.3-11.63,5.51-23.37,10.81-34.87,16.59C738.86,906.75,735.84,909.19,732,909.89Z" transform="translate(-585.54 -779.48)"/><path class="cls-91" d="M777,882.14c-.12,2.57-2.32,3.05-4,3.85-12.85,6-25.69,12-38.65,17.68-2.55,1.12-4.62,3.33-7.61,3.46a8.16,8.16,0,0,1-4.08-2c10.72-3.93,20.8-9.27,31.07-14.19,6.17-3,12.62-5.35,19-7.94a4.46,4.46,0,0,0,2.3-1.75Z" transform="translate(-585.54 -779.48)"/><path class="cls-92" d="M710.15,854.6c-8.09,3.8-16.12,7.74-24.29,11.37-6.7,3-13.58,5.52-20.33,8.39-1,.42-1.66,1.55-2.48,2.35l-4-1.93c.23-3.38,3.24-4.22,5.47-5.07,12.27-4.68,24.05-10.47,36.19-15.44A14.24,14.24,0,0,1,706,853,7.12,7.12,0,0,1,710.15,854.6Z" transform="translate(-585.54 -779.48)"/><path class="cls-93" d="M736,865.23l2,.84c1.35,3.22-1.22,4.17-3.22,5.08-11,5-22,10.14-33.37,14.39-2.36.88-4.34,2.47-6.69,3.34-1.91.71-3.82,1.17-5.76.13a2.19,2.19,0,0,1-2-1c.54-2.4,2.46-3.28,4.45-4.18,4.93-2.22,10.2-3.61,14.88-6.41.85-.45,1.73-.83,2.56-1.32,2.89-1.45,6.57-1.08,8.9-3.86C723.93,870.19,729.33,866.07,736,865.23Z" transform="translate(-585.54 -779.48)"/><path class="cls-94" d="M684.2,843.9A10,10,0,0,1,689,846c-1.92,2.59-5.07,3-7.73,4.16-11.68,5-23.51,9.7-35.11,14.9a16.76,16.76,0,0,1-5.29,1.15l-2.86-1.45c.31-3.28,3.09-4.18,5.42-5.18,11.32-4.83,23-8.77,34-14.39A11.19,11.19,0,0,1,684.2,843.9Z" transform="translate(-585.54 -779.48)"/><path class="cls-95" d="M689,889c6.05-.09,10.56-4.26,15.93-6.2,10.15-3.67,19.87-8.53,29.8-12.84,1.8-.78,3.11-1.83,3.31-3.9l5,2c.09,3-2.43,3.88-4.42,4.73-13.29,5.7-26.66,11.21-39.67,17.56a9.31,9.31,0,0,1-5.35.78C691.59,891.36,690.29,890.15,689,889Z" transform="translate(-585.54 -779.48)"/><path class="cls-96" d="M732,909.89c5.38-4.2,11.67-6.75,17.65-9.89,10.62-5.59,22.12-9.37,32.31-15.83l2,.89c1.08,1.77,0,2.9-1.38,3.52-6.51,2.88-13.08,5.63-19.62,8.42-2.16.68-3.87,2.26-6,3-1.74-.15-2.61,1.44-4,2s-2.9.86-4,2l-3,1c-1.16,1-2.87.92-4,2l-2,1c-1.32.7-2.9.86-4,2l-1,1A3.47,3.47,0,0,1,732,909.89Z" transform="translate(-585.54 -779.48)"/><path class="cls-97" d="M667,878.68c4-4.63,10.21-5,15.31-7.48,10.79-5.22,22-9.64,33-14.4a10,10,0,0,1,5,2.06c-3.21-.48-5.65,1.58-8.32,2.69-13.55,5.63-27,11.44-40.51,17.22A7.8,7.8,0,0,0,670,880Z" transform="translate(-585.54 -779.48)"/><path class="cls-98" d="M674.84,882.41c3.45-4.5,9.08-4.85,13.71-7C699.93,870,711.85,865.85,723,860c1.49.57,3.23.56,4.43,1.83-15.62,6.13-30.79,13.3-46.1,20.16a4.24,4.24,0,0,0-2.46,2.26Z" transform="translate(-585.54 -779.48)"/><path class="cls-99" d="M751,877a2.07,2.07,0,0,0-2,1,17.56,17.56,0,0,0-7,3c-10.85,5-22.12,9-32.46,15.11a14.49,14.49,0,0,1-3.79,1,8.15,8.15,0,0,1-4.07-2,122.87,122.87,0,0,1,23-10.93c6.47-2.39,12.66-5.64,18.89-8.68,3-1.49,6-3.79,9.78-2.69l1.61.23C755.22,876,752.33,875.7,751,877Z" transform="translate(-585.54 -779.48)"/><path class="cls-100" d="M684.2,843.9c-13.37,5.55-26.45,11.77-40.1,16.65a13.93,13.93,0,0,0-6,4.19l-4.71-1.94c.58-1.39,1.69-1.62,2.67-2,14.07-5.74,28.16-11.44,42.2-17.25C680.4,842.62,682.3,842.3,684.2,843.9Z" transform="translate(-585.54 -779.48)"/><path class="cls-101" d="M706,853c-8.15,3.65-16.51,6.89-24.38,11.07-7.39,3.92-16.23,4.71-22.58,10.74l-4-1.95c-.18-2.67,2-3.26,3.75-3.93,12.2-4.62,24.06-10,36-15.15,2.36-1,4.8-2.25,7.57-1.93A3.67,3.67,0,0,1,706,853Z" transform="translate(-585.54 -779.48)"/><path class="cls-102" d="M693.54,891.18,737.38,872c2.13-.93,4.19-2,5.6-3.91l3,1.16c.22,2.3-1.43,3.32-3.09,4-15.11,6.42-29.61,14.2-45,20A8.65,8.65,0,0,1,693.54,891.18Z" transform="translate(-585.54 -779.48)"/><path class="cls-103" d="M753.38,872.85c-9.05,3.09-17.11,8.57-26.17,11.47-8.89,2.84-16.44,8.62-25.54,10.82l-.38,0-.28-.26c-.31-2.77,1.75-3.85,3.69-4.61,13.22-5.14,25.74-11.85,38.79-17.35A37.41,37.41,0,0,1,750,871,4.26,4.26,0,0,1,753.38,872.85Z" transform="translate(-585.54 -779.48)"/><path class="cls-104" d="M640.92,866.19c12.19-6.13,25-10.79,37.54-16.14,3.47-1.48,6.76-3.5,10.59-4.07l2.06.8c.46,2.43-1.74,2.73-3,3.24-13.09,5.17-25.85,11.11-38.85,16.5-1.39.57-2.83,1-4.23,1.46C643.56,867.56,642,867.39,640.92,866.19Z" transform="translate(-585.54 -779.48)"/><path class="cls-105" d="M750,871c-13.86,6.51-27.63,13.21-41.9,18.8-2.79,1.09-5.42,2.41-7.08,5.08l-3.13-1.6c3.27-4.58,8.93-4.61,13.42-6.83,10-5,20.28-9.3,30.45-13.88a8.81,8.81,0,0,0,4.2-3.33Z" transform="translate(-585.54 -779.48)"/><path class="cls-106" d="M645,868c1.28-2.32,3.83-2.21,5.83-3.22,12.9-6.5,26.49-11.36,39.64-17.25.27-.12.43-.49.64-.74,1.28,1.81,3.81.52,5.19,2.09-6.88,3.88-14.34,6.47-21.62,9.41C665.51,862,656.82,866.94,647,869Z" transform="translate(-585.54 -779.48)"/><path class="cls-107" d="M647,869c2.91-2.93,7.05-3.14,10.58-4.69,10.62-4.67,21.35-9.11,32.08-13.53a56.8,56.8,0,0,1,6.63-1.86l2.1.95c-8.38,5-17.69,7.92-26.48,12-6.89,3.2-14,6-20.91,9.06A8.15,8.15,0,0,1,647,869Z" transform="translate(-585.54 -779.48)"/><path class="cls-108" d="M702.39,851.83c-9.31,4-18.75,7.83-27.89,12.21-6.43,3.08-13.92,3.8-19.47,8.8l-2-1c-1.08-1.82.28-2.23,1.55-2.78,11-4.8,22-9.79,33.22-14.16,3.83-1.49,7.28-4,11.54-4.37a3.3,3.3,0,0,1,1.92.38Z" transform="translate(-585.54 -779.48)"/><path class="cls-109" d="M701.23,850.91c-9,2.16-17.11,6.7-25.71,9.95-7.17,2.71-14.05,6.15-21.1,9.2a2.17,2.17,0,0,0-1.42,1.79l-2-1c3.15-4.29,8.38-4.81,12.73-6.86,9.24-4.35,18.7-8.22,28-12.44a16.75,16.75,0,0,1,6.66-1.77A3.79,3.79,0,0,1,701.23,850.91Z" transform="translate(-585.54 -779.48)"/><path class="cls-110" d="M709,877l-2,1a2.29,2.29,0,0,1-3-1,237,237,0,0,1,24.55-10.45c1.31-.44,2.32-1.76,3.48-2.67,1.6-.37,2.7.74,4,1.34-5.07,2.26-10.14,4.53-15.22,6.77-.9.4-1.85.67-2.77,1C715.42,875.28,711.64,874.85,709,877Z" transform="translate(-585.54 -779.48)"/><path class="cls-111" d="M704,877l3,1c-4,3.8-9.7,3.95-14.28,6.65-1.87,1.1-3.78,2.36-5.76,3.37-1.81.24-2.92-1-4.2-1.93Z" transform="translate(-585.54 -779.48)"/><path class="cls-112" d="M751,877l4-3.92,2,.91C755.27,875.54,753.63,877.25,751,877Z" transform="translate(-585.54 -779.48)"/><path class="cls-113" d="M757,900c1.73-1.54,3.38-3.25,6-3C761.27,898.53,759.62,900.25,757,900Z" transform="translate(-585.54 -779.48)"/><path class="cls-113" d="M742,907c.76-1.82,2.29-2.09,4-2C745.24,906.82,743.71,907.09,742,907Z" transform="translate(-585.54 -779.48)"/><path class="cls-113" d="M736,910c.76-1.82,2.29-2.09,4-2A5.48,5.48,0,0,1,736,910Z" transform="translate(-585.54 -779.48)"/><path class="cls-113" d="M749,904c.76-1.82,2.29-2.09,4-2A5.47,5.47,0,0,1,749,904Z" transform="translate(-585.54 -779.48)"/><path class="cls-112" d="M742,881c1.4-3.17,4.17-3.15,7-3C746.75,879.21,744.8,881.1,742,881Z" transform="translate(-585.54 -779.48)"/><path class="cls-111" d="M709,877c2.45-2.57,5.61-3.54,9-4C716.19,877,712,875.63,709,877Z" transform="translate(-585.54 -779.48)"/><path class="cls-114" d="M1019.45,944.31l77.18-45.71,195.67-115.87c1.29-.76,2.54-1.61,3.88-2.25a3.8,3.8,0,0,1,5.22,1.5c1.39,2.16.79,4.19-1.24,5.66-1.34,1-2.84,1.73-4.27,2.58q-130,77-259.94,154.15C1030.14,947.83,1025.29,949.17,1019.45,944.31Z" transform="translate(-585.54 -779.48)"/><path class="cls-114" d="M1411.07,1120.48,1022.3,960.1l-41.15-17c2.65-1.47,4.2-2.35,5.78-3.2q109-59,217.91-117.94c3-1.61,8.13-2.7,5.66-7.6s-6.31-1.39-9.31.23q-112.94,61-225.82,122.17c-2.8,1.52-5.11,1.88-8.22.43-6.28-3-12.86-5.24-19.29-7.89q-130.8-53.94-261.55-108a12.43,12.43,0,0,0-10.45,0c-15,6.33-30.09,12.4-45.16,18.55q-20.06,8.19-40.13,16.37c-2.16.88-4.51,1.7-4.53,4.64s2.29,3.8,4.38,4.84c.45.22.91.4,1.36.61Q730,932.63,868.1,998.94c3.93,1.89,6.89,1.64,10.6-.38,29.6-16.19,59.31-32.17,88.94-48.28a7.66,7.66,0,0,1,7.38-.5q75.09,31,150.28,61.85,117.23,48.28,234.43,96.66c15,6.2,30,12.44,45.21,18.73a10.3,10.3,0,0,1-1,1.42q-42.74,40.66-85.45,81.36c-2.36,2.26-4,1.23-6.12.19q-195.74-96.54-391.48-193.1c-1.2-.59-2.92-.69-3.35-2.51l73.88-43.8c-5.1-2.2-8.77-4.87-14.35-1.42C954.6,983,931.72,996.3,909,1009.74a26.41,26.41,0,0,0-6.2,4.95q-56.65,62-113.34,124a23.26,23.26,0,0,0-2.9,3.42,4,4,0,0,0,5.64,5.53,20.55,20.55,0,0,0,3.54-3.5q54.67-59.74,109.25-119.57c2.88-3.17,4.86-3.93,9-1.86Q1112.75,1121,1311.64,1219c4.45,2.2,7.25,1.89,10.88-1.58q45.11-43.25,90.54-86.16C1418.9,1125.71,1418.5,1123.54,1411.07,1120.48ZM875.45,990.88c-2.68,1.47-4.39.07-6.38-.88Q759.88,937.72,650.71,885.41l-50.24-24.07c18.64-7.64,36.44-15,54.25-22.24,7.68-3.14,15.42-6.15,23.06-9.4a7.75,7.75,0,0,1,6.6,0q130,53.74,260.13,107.35c5.48,2.26,10.89,4.71,16.77,7.27C932.33,960,903.85,975.35,875.45,990.88Z" transform="translate(-585.54 -779.48)"/></svg>